<mxfile host="Electron" modified="2023-05-18T12:20:17.048Z" agent="Mozilla/5.0 (X11; Linux x86_64) AppleWebKit/537.36 (KHTML, like Gecko) draw.io/21.2.8 Chrome/106.0.5249.199 Electron/21.4.4 Safari/537.36" etag="S-EaLiHIYzAzcXtdTwAG" version="21.2.8" type="device">
  <diagram id="R2lEEEUBdFMjLlhIrx00" name="Page-1">
    <mxGraphModel dx="2643" dy="1051" grid="1" gridSize="10" guides="1" tooltips="1" connect="1" arrows="1" fold="1" page="1" pageScale="1" pageWidth="850" pageHeight="1100" math="0" shadow="0" extFonts="Permanent Marker^https://fonts.googleapis.com/css?family=Permanent+Marker">
      <root>
        <mxCell id="0" />
        <mxCell id="1" parent="0" />
        <mxCell id="vgfZ0bpz_m0bb3JBTG_X-3" value="Estación" style="whiteSpace=wrap;html=1;align=center;fillColor=#b1ddf0;strokeColor=#10739e;" parent="1" vertex="1">
          <mxGeometry x="60" y="140" width="100" height="40" as="geometry" />
        </mxCell>
        <mxCell id="vgfZ0bpz_m0bb3JBTG_X-4" value="Trabajan" style="shape=rhombus;perimeter=rhombusPerimeter;whiteSpace=wrap;html=1;align=center;fillColor=#b1ddf0;strokeColor=#10739e;" parent="1" vertex="1">
          <mxGeometry x="210" y="130" width="120" height="60" as="geometry" />
        </mxCell>
        <mxCell id="vgfZ0bpz_m0bb3JBTG_X-5" value="" style="endArrow=none;html=1;rounded=0;exitX=1;exitY=0.5;exitDx=0;exitDy=0;entryX=0;entryY=0.5;entryDx=0;entryDy=0;fillColor=#b1ddf0;strokeColor=#10739e;" parent="1" source="vgfZ0bpz_m0bb3JBTG_X-3" target="vgfZ0bpz_m0bb3JBTG_X-4" edge="1">
          <mxGeometry relative="1" as="geometry">
            <mxPoint x="150" y="240" as="sourcePoint" />
            <mxPoint x="310" y="240" as="targetPoint" />
          </mxGeometry>
        </mxCell>
        <mxCell id="vgfZ0bpz_m0bb3JBTG_X-7" value="" style="endArrow=none;html=1;rounded=0;exitX=1;exitY=0.5;exitDx=0;exitDy=0;entryX=0;entryY=0.5;entryDx=0;entryDy=0;fillColor=#b1ddf0;strokeColor=#10739e;" parent="1" source="vgfZ0bpz_m0bb3JBTG_X-4" target="vgfZ0bpz_m0bb3JBTG_X-8" edge="1">
          <mxGeometry relative="1" as="geometry">
            <mxPoint x="310" y="300" as="sourcePoint" />
            <mxPoint x="430" y="140" as="targetPoint" />
          </mxGeometry>
        </mxCell>
        <mxCell id="vgfZ0bpz_m0bb3JBTG_X-8" value="Trabajadores" style="whiteSpace=wrap;html=1;align=center;fillColor=#b1ddf0;strokeColor=#10739e;" parent="1" vertex="1">
          <mxGeometry x="425" y="140" width="100" height="40" as="geometry" />
        </mxCell>
        <mxCell id="vgfZ0bpz_m0bb3JBTG_X-10" value="&lt;font style=&quot;font-size: 15px;&quot;&gt;1:N&lt;/font&gt;" style="text;html=1;align=center;verticalAlign=middle;resizable=0;points=[];autosize=1;" parent="1" vertex="1">
          <mxGeometry x="245" y="100" width="50" height="30" as="geometry" />
        </mxCell>
        <mxCell id="vgfZ0bpz_m0bb3JBTG_X-11" value="Tienen" style="shape=rhombus;perimeter=rhombusPerimeter;whiteSpace=wrap;html=1;align=center;fillColor=#b1ddf0;strokeColor=#10739e;" parent="1" vertex="1">
          <mxGeometry x="700" y="130" width="120" height="60" as="geometry" />
        </mxCell>
        <mxCell id="vgfZ0bpz_m0bb3JBTG_X-12" value="Especialidad" style="whiteSpace=wrap;html=1;align=center;fillColor=#b1ddf0;strokeColor=#10739e;" parent="1" vertex="1">
          <mxGeometry x="850" y="140" width="100" height="40" as="geometry" />
        </mxCell>
        <mxCell id="vgfZ0bpz_m0bb3JBTG_X-13" value="" style="endArrow=none;html=1;rounded=0;exitX=1;exitY=0.5;exitDx=0;exitDy=0;entryX=0;entryY=0.5;entryDx=0;entryDy=0;fillColor=#b1ddf0;strokeColor=#10739e;" parent="1" source="vgfZ0bpz_m0bb3JBTG_X-8" target="vgfZ0bpz_m0bb3JBTG_X-11" edge="1">
          <mxGeometry relative="1" as="geometry">
            <mxPoint x="490" y="250" as="sourcePoint" />
            <mxPoint x="650" y="250" as="targetPoint" />
          </mxGeometry>
        </mxCell>
        <mxCell id="vgfZ0bpz_m0bb3JBTG_X-14" value="" style="endArrow=none;html=1;rounded=0;exitX=1;exitY=0.5;exitDx=0;exitDy=0;entryX=0;entryY=0.5;entryDx=0;entryDy=0;fillColor=#b1ddf0;strokeColor=#10739e;" parent="1" source="vgfZ0bpz_m0bb3JBTG_X-11" target="vgfZ0bpz_m0bb3JBTG_X-12" edge="1">
          <mxGeometry relative="1" as="geometry">
            <mxPoint x="720" y="270" as="sourcePoint" />
            <mxPoint x="880" y="270" as="targetPoint" />
          </mxGeometry>
        </mxCell>
        <mxCell id="vgfZ0bpz_m0bb3JBTG_X-15" value="Salario" style="ellipse;whiteSpace=wrap;html=1;align=center;fillColor=#b1ddf0;strokeColor=#10739e;" parent="1" vertex="1">
          <mxGeometry x="990" y="100" width="100" height="40" as="geometry" />
        </mxCell>
        <mxCell id="vgfZ0bpz_m0bb3JBTG_X-16" value="" style="endArrow=none;html=1;rounded=0;exitX=0;exitY=0.5;exitDx=0;exitDy=0;entryX=1;entryY=0.25;entryDx=0;entryDy=0;fillColor=#b1ddf0;strokeColor=#10739e;" parent="1" source="vgfZ0bpz_m0bb3JBTG_X-15" target="vgfZ0bpz_m0bb3JBTG_X-12" edge="1">
          <mxGeometry relative="1" as="geometry">
            <mxPoint x="660" y="210" as="sourcePoint" />
            <mxPoint x="820" y="210" as="targetPoint" />
          </mxGeometry>
        </mxCell>
        <mxCell id="vgfZ0bpz_m0bb3JBTG_X-17" value="Nombre" style="ellipse;whiteSpace=wrap;html=1;align=center;fillColor=#b1ddf0;strokeColor=#10739e;" parent="1" vertex="1">
          <mxGeometry x="60" y="50" width="100" height="40" as="geometry" />
        </mxCell>
        <mxCell id="vgfZ0bpz_m0bb3JBTG_X-18" value="Correo Electrónico" style="ellipse;whiteSpace=wrap;html=1;align=center;fillColor=#b1ddf0;strokeColor=#10739e;" parent="1" vertex="1">
          <mxGeometry x="60" y="220" width="100" height="40" as="geometry" />
        </mxCell>
        <mxCell id="vgfZ0bpz_m0bb3JBTG_X-19" value="Nº Teléfono" style="ellipse;whiteSpace=wrap;html=1;align=center;fillColor=#b1ddf0;strokeColor=#10739e;" parent="1" vertex="1">
          <mxGeometry x="-50" y="180" width="100" height="40" as="geometry" />
        </mxCell>
        <mxCell id="vgfZ0bpz_m0bb3JBTG_X-20" value="Dirección" style="ellipse;whiteSpace=wrap;html=1;align=center;fillColor=#b1ddf0;strokeColor=#10739e;" parent="1" vertex="1">
          <mxGeometry x="-40" y="90" width="100" height="40" as="geometry" />
        </mxCell>
        <mxCell id="vgfZ0bpz_m0bb3JBTG_X-21" value="" style="endArrow=none;html=1;rounded=0;exitX=0.5;exitY=1;exitDx=0;exitDy=0;entryX=0.5;entryY=0;entryDx=0;entryDy=0;fillColor=#b1ddf0;strokeColor=#10739e;" parent="1" source="vgfZ0bpz_m0bb3JBTG_X-17" target="vgfZ0bpz_m0bb3JBTG_X-3" edge="1">
          <mxGeometry relative="1" as="geometry">
            <mxPoint x="190" y="69.55000000000001" as="sourcePoint" />
            <mxPoint x="350" y="69.55000000000001" as="targetPoint" />
          </mxGeometry>
        </mxCell>
        <mxCell id="vgfZ0bpz_m0bb3JBTG_X-22" value="" style="endArrow=none;html=1;rounded=0;exitX=0.5;exitY=1;exitDx=0;exitDy=0;entryX=0.5;entryY=0;entryDx=0;entryDy=0;fillColor=#b1ddf0;strokeColor=#10739e;" parent="1" source="vgfZ0bpz_m0bb3JBTG_X-3" target="vgfZ0bpz_m0bb3JBTG_X-18" edge="1">
          <mxGeometry relative="1" as="geometry">
            <mxPoint x="20" y="320" as="sourcePoint" />
            <mxPoint x="180" y="320" as="targetPoint" />
          </mxGeometry>
        </mxCell>
        <mxCell id="vgfZ0bpz_m0bb3JBTG_X-23" value="" style="endArrow=none;html=1;rounded=0;exitX=1;exitY=0.5;exitDx=0;exitDy=0;entryX=0.25;entryY=1;entryDx=0;entryDy=0;fillColor=#b1ddf0;strokeColor=#10739e;" parent="1" source="vgfZ0bpz_m0bb3JBTG_X-19" target="vgfZ0bpz_m0bb3JBTG_X-3" edge="1">
          <mxGeometry relative="1" as="geometry">
            <mxPoint x="30" y="330" as="sourcePoint" />
            <mxPoint x="190" y="330" as="targetPoint" />
          </mxGeometry>
        </mxCell>
        <mxCell id="vgfZ0bpz_m0bb3JBTG_X-24" value="" style="endArrow=none;html=1;rounded=0;exitX=1;exitY=0.5;exitDx=0;exitDy=0;entryX=0.25;entryY=0;entryDx=0;entryDy=0;fillColor=#b1ddf0;strokeColor=#10739e;" parent="1" source="vgfZ0bpz_m0bb3JBTG_X-20" target="vgfZ0bpz_m0bb3JBTG_X-3" edge="1">
          <mxGeometry relative="1" as="geometry">
            <mxPoint x="40" y="340" as="sourcePoint" />
            <mxPoint x="200" y="340" as="targetPoint" />
          </mxGeometry>
        </mxCell>
        <mxCell id="vgfZ0bpz_m0bb3JBTG_X-26" value="Nombre" style="ellipse;whiteSpace=wrap;html=1;align=center;fillColor=#b1ddf0;strokeColor=#10739e;" parent="1" vertex="1">
          <mxGeometry x="295" y="90" width="100" height="40" as="geometry" />
        </mxCell>
        <mxCell id="vgfZ0bpz_m0bb3JBTG_X-27" value="Correo Electrónico" style="ellipse;whiteSpace=wrap;html=1;align=center;fillColor=#b1ddf0;strokeColor=#10739e;" parent="1" vertex="1">
          <mxGeometry x="300" y="40" width="100" height="40" as="geometry" />
        </mxCell>
        <mxCell id="vgfZ0bpz_m0bb3JBTG_X-28" value="Nombre de usuario" style="ellipse;whiteSpace=wrap;html=1;align=center;fillColor=#b1ddf0;strokeColor=#10739e;" parent="1" vertex="1">
          <mxGeometry x="505" y="10" width="100" height="40" as="geometry" />
        </mxCell>
        <mxCell id="vgfZ0bpz_m0bb3JBTG_X-29" value="Contraseña" style="ellipse;whiteSpace=wrap;html=1;align=center;fillColor=#b1ddf0;strokeColor=#10739e;" parent="1" vertex="1">
          <mxGeometry x="600" y="30" width="100" height="40" as="geometry" />
        </mxCell>
        <mxCell id="vgfZ0bpz_m0bb3JBTG_X-30" value="" style="endArrow=none;html=1;rounded=0;exitX=0;exitY=1;exitDx=0;exitDy=0;entryX=1;entryY=0;entryDx=0;entryDy=0;fillColor=#b1ddf0;strokeColor=#10739e;" parent="1" source="vgfZ0bpz_m0bb3JBTG_X-29" target="vgfZ0bpz_m0bb3JBTG_X-8" edge="1">
          <mxGeometry relative="1" as="geometry">
            <mxPoint x="400" y="290" as="sourcePoint" />
            <mxPoint x="560" y="290" as="targetPoint" />
          </mxGeometry>
        </mxCell>
        <mxCell id="vgfZ0bpz_m0bb3JBTG_X-31" value="" style="endArrow=none;html=1;rounded=0;exitX=1;exitY=1;exitDx=0;exitDy=0;entryX=0;entryY=0;entryDx=0;entryDy=0;fillColor=#b1ddf0;strokeColor=#10739e;" parent="1" source="vgfZ0bpz_m0bb3JBTG_X-26" target="vgfZ0bpz_m0bb3JBTG_X-8" edge="1">
          <mxGeometry relative="1" as="geometry">
            <mxPoint x="510" y="180" as="sourcePoint" />
            <mxPoint x="670" y="180" as="targetPoint" />
          </mxGeometry>
        </mxCell>
        <mxCell id="vgfZ0bpz_m0bb3JBTG_X-32" value="&lt;u&gt;Id Estación&lt;/u&gt;" style="ellipse;whiteSpace=wrap;html=1;align=center;fillColor=#b0e3e6;strokeColor=#0e8088;" parent="1" vertex="1">
          <mxGeometry x="170" y="50" width="100" height="40" as="geometry" />
        </mxCell>
        <mxCell id="vgfZ0bpz_m0bb3JBTG_X-33" value="" style="endArrow=none;html=1;rounded=0;exitX=0.75;exitY=0;exitDx=0;exitDy=0;entryX=0.5;entryY=1;entryDx=0;entryDy=0;fillColor=#b1ddf0;strokeColor=#10739e;" parent="1" source="vgfZ0bpz_m0bb3JBTG_X-3" target="vgfZ0bpz_m0bb3JBTG_X-32" edge="1">
          <mxGeometry relative="1" as="geometry">
            <mxPoint x="160" y="110" as="sourcePoint" />
            <mxPoint x="320" y="110" as="targetPoint" />
          </mxGeometry>
        </mxCell>
        <mxCell id="vgfZ0bpz_m0bb3JBTG_X-34" value="" style="endArrow=none;html=1;rounded=0;exitX=0.25;exitY=0;exitDx=0;exitDy=0;entryX=1;entryY=1;entryDx=0;entryDy=0;fillColor=#b1ddf0;strokeColor=#10739e;" parent="1" source="vgfZ0bpz_m0bb3JBTG_X-8" target="vgfZ0bpz_m0bb3JBTG_X-27" edge="1">
          <mxGeometry relative="1" as="geometry">
            <mxPoint x="430" y="250" as="sourcePoint" />
            <mxPoint x="590" y="250" as="targetPoint" />
          </mxGeometry>
        </mxCell>
        <mxCell id="vgfZ0bpz_m0bb3JBTG_X-35" value="" style="endArrow=none;html=1;rounded=0;exitX=0.75;exitY=0;exitDx=0;exitDy=0;entryX=0.5;entryY=1;entryDx=0;entryDy=0;fillColor=#b1ddf0;strokeColor=#10739e;" parent="1" source="vgfZ0bpz_m0bb3JBTG_X-8" target="vgfZ0bpz_m0bb3JBTG_X-28" edge="1">
          <mxGeometry relative="1" as="geometry">
            <mxPoint x="530" y="110" as="sourcePoint" />
            <mxPoint x="530" y="70" as="targetPoint" />
          </mxGeometry>
        </mxCell>
        <mxCell id="vgfZ0bpz_m0bb3JBTG_X-36" value="&lt;font style=&quot;font-size: 15px;&quot;&gt;N:1&lt;/font&gt;" style="text;html=1;align=center;verticalAlign=middle;resizable=0;points=[];autosize=1;" parent="1" vertex="1">
          <mxGeometry x="735" y="100" width="50" height="30" as="geometry" />
        </mxCell>
        <mxCell id="vgfZ0bpz_m0bb3JBTG_X-39" value="Citas" style="whiteSpace=wrap;html=1;align=center;fillColor=#b1ddf0;strokeColor=#10739e;" parent="1" vertex="1">
          <mxGeometry x="425" y="420" width="100" height="40" as="geometry" />
        </mxCell>
        <mxCell id="vgfZ0bpz_m0bb3JBTG_X-40" value="Atiende" style="shape=rhombus;perimeter=rhombusPerimeter;whiteSpace=wrap;html=1;align=center;fillColor=#b1ddf0;strokeColor=#10739e;" parent="1" vertex="1">
          <mxGeometry x="415" y="310" width="120" height="60" as="geometry" />
        </mxCell>
        <mxCell id="vgfZ0bpz_m0bb3JBTG_X-41" value="" style="endArrow=none;html=1;rounded=0;exitX=0.5;exitY=1;exitDx=0;exitDy=0;entryX=0.5;entryY=0;entryDx=0;entryDy=0;fillColor=#b1ddf0;strokeColor=#10739e;" parent="1" source="vgfZ0bpz_m0bb3JBTG_X-40" target="vgfZ0bpz_m0bb3JBTG_X-39" edge="1">
          <mxGeometry relative="1" as="geometry">
            <mxPoint x="500" y="380" as="sourcePoint" />
            <mxPoint x="660" y="380" as="targetPoint" />
          </mxGeometry>
        </mxCell>
        <mxCell id="vgfZ0bpz_m0bb3JBTG_X-42" value="" style="endArrow=none;html=1;rounded=0;exitX=0.5;exitY=1;exitDx=0;exitDy=0;entryX=0.5;entryY=0;entryDx=0;entryDy=0;fillColor=#b1ddf0;strokeColor=#10739e;" parent="1" source="vgfZ0bpz_m0bb3JBTG_X-8" target="vgfZ0bpz_m0bb3JBTG_X-40" edge="1">
          <mxGeometry relative="1" as="geometry">
            <mxPoint x="480" y="240" as="sourcePoint" />
            <mxPoint x="640" y="240" as="targetPoint" />
          </mxGeometry>
        </mxCell>
        <mxCell id="vgfZ0bpz_m0bb3JBTG_X-43" value="Id Trabajador&lt;br&gt;" style="ellipse;whiteSpace=wrap;html=1;align=center;fontStyle=4;fillColor=#b0e3e6;strokeColor=#0e8088;" parent="1" vertex="1">
          <mxGeometry x="600" y="80" width="100" height="40" as="geometry" />
        </mxCell>
        <mxCell id="vgfZ0bpz_m0bb3JBTG_X-44" value="" style="endArrow=none;html=1;rounded=0;exitX=1;exitY=0.25;exitDx=0;exitDy=0;entryX=0;entryY=1;entryDx=0;entryDy=0;fillColor=#b1ddf0;strokeColor=#10739e;" parent="1" source="vgfZ0bpz_m0bb3JBTG_X-8" target="vgfZ0bpz_m0bb3JBTG_X-43" edge="1">
          <mxGeometry relative="1" as="geometry">
            <mxPoint x="540" y="280" as="sourcePoint" />
            <mxPoint x="550" y="200" as="targetPoint" />
          </mxGeometry>
        </mxCell>
        <mxCell id="vgfZ0bpz_m0bb3JBTG_X-50" value="" style="endArrow=none;html=1;rounded=0;exitX=0.75;exitY=1;exitDx=0;exitDy=0;entryX=0;entryY=0.5;entryDx=0;entryDy=0;fillColor=#b1ddf0;strokeColor=#10739e;" parent="1" source="vgfZ0bpz_m0bb3JBTG_X-8" target="vgfZ0bpz_m0bb3JBTG_X-51" edge="1">
          <mxGeometry relative="1" as="geometry">
            <mxPoint x="480" y="239.26" as="sourcePoint" />
            <mxPoint x="530" y="240" as="targetPoint" />
            <Array as="points">
              <mxPoint x="500" y="240" />
            </Array>
          </mxGeometry>
        </mxCell>
        <mxCell id="vgfZ0bpz_m0bb3JBTG_X-51" value="es Responsable" style="shape=rhombus;perimeter=rhombusPerimeter;whiteSpace=wrap;html=1;align=center;fillColor=#b1ddf0;strokeColor=#10739e;" parent="1" vertex="1">
          <mxGeometry x="545" y="210" width="105" height="60" as="geometry" />
        </mxCell>
        <mxCell id="vgfZ0bpz_m0bb3JBTG_X-53" value="&lt;font style=&quot;font-size: 15px;&quot;&gt;N:1&lt;/font&gt;" style="text;html=1;align=center;verticalAlign=middle;resizable=0;points=[];autosize=1;" parent="1" vertex="1">
          <mxGeometry x="570" y="268" width="50" height="30" as="geometry" />
        </mxCell>
        <mxCell id="vgfZ0bpz_m0bb3JBTG_X-54" value="&lt;u&gt;Id Trabajador&lt;/u&gt;" style="ellipse;whiteSpace=wrap;html=1;align=center;fillColor=#b0e3e6;strokeColor=#0e8088;" parent="1" vertex="1">
          <mxGeometry x="580" y="355" width="100" height="40" as="geometry" />
        </mxCell>
        <mxCell id="vgfZ0bpz_m0bb3JBTG_X-55" value="Fecha Citación" style="ellipse;whiteSpace=wrap;html=1;align=center;fontStyle=4;fillColor=#b0e3e6;strokeColor=#0e8088;" parent="1" vertex="1">
          <mxGeometry x="580" y="410" width="100" height="40" as="geometry" />
        </mxCell>
        <mxCell id="vgfZ0bpz_m0bb3JBTG_X-56" value="" style="endArrow=none;html=1;rounded=0;exitX=1;exitY=0;exitDx=0;exitDy=0;entryX=0;entryY=0.5;entryDx=0;entryDy=0;fillColor=#b1ddf0;strokeColor=#10739e;" parent="1" source="vgfZ0bpz_m0bb3JBTG_X-39" target="vgfZ0bpz_m0bb3JBTG_X-54" edge="1">
          <mxGeometry relative="1" as="geometry">
            <mxPoint x="320" y="470" as="sourcePoint" />
            <mxPoint x="480" y="470" as="targetPoint" />
          </mxGeometry>
        </mxCell>
        <mxCell id="vgfZ0bpz_m0bb3JBTG_X-57" value="" style="endArrow=none;html=1;rounded=0;exitX=1;exitY=0.5;exitDx=0;exitDy=0;entryX=0;entryY=0.5;entryDx=0;entryDy=0;fillColor=#b1ddf0;strokeColor=#10739e;" parent="1" source="vgfZ0bpz_m0bb3JBTG_X-39" target="vgfZ0bpz_m0bb3JBTG_X-55" edge="1">
          <mxGeometry relative="1" as="geometry">
            <mxPoint x="370" y="530" as="sourcePoint" />
            <mxPoint x="530" y="530" as="targetPoint" />
          </mxGeometry>
        </mxCell>
        <mxCell id="vgfZ0bpz_m0bb3JBTG_X-58" value="&lt;font style=&quot;font-size: 15px;&quot;&gt;N:1&lt;/font&gt;" style="text;html=1;align=center;verticalAlign=middle;resizable=0;points=[];autosize=1;rotation=0;" parent="1" vertex="1">
          <mxGeometry x="365" y="325" width="50" height="30" as="geometry" />
        </mxCell>
        <mxCell id="vgfZ0bpz_m0bb3JBTG_X-59" value="Nombre" style="ellipse;whiteSpace=wrap;html=1;align=center;fontStyle=4;fillColor=#b0e3e6;strokeColor=#0e8088;" parent="1" vertex="1">
          <mxGeometry x="990" y="160" width="100" height="40" as="geometry" />
        </mxCell>
        <mxCell id="vgfZ0bpz_m0bb3JBTG_X-60" value="" style="endArrow=none;html=1;rounded=0;exitX=1;exitY=0.75;exitDx=0;exitDy=0;entryX=0;entryY=0.5;entryDx=0;entryDy=0;fillColor=#b1ddf0;strokeColor=#10739e;" parent="1" source="vgfZ0bpz_m0bb3JBTG_X-12" target="vgfZ0bpz_m0bb3JBTG_X-59" edge="1">
          <mxGeometry relative="1" as="geometry">
            <mxPoint x="850" y="210" as="sourcePoint" />
            <mxPoint x="1010" y="210" as="targetPoint" />
          </mxGeometry>
        </mxCell>
        <mxCell id="vgfZ0bpz_m0bb3JBTG_X-61" value="Asociadas" style="shape=rhombus;perimeter=rhombusPerimeter;whiteSpace=wrap;html=1;align=center;fillColor=#b1ddf0;strokeColor=#10739e;" parent="1" vertex="1">
          <mxGeometry x="220" y="410" width="120" height="60" as="geometry" />
        </mxCell>
        <mxCell id="vgfZ0bpz_m0bb3JBTG_X-62" value="" style="endArrow=none;html=1;rounded=0;exitX=1;exitY=0.5;exitDx=0;exitDy=0;entryX=0;entryY=0.5;entryDx=0;entryDy=0;fillColor=#b1ddf0;strokeColor=#10739e;" parent="1" source="vgfZ0bpz_m0bb3JBTG_X-61" target="vgfZ0bpz_m0bb3JBTG_X-39" edge="1">
          <mxGeometry relative="1" as="geometry">
            <mxPoint x="310" y="510" as="sourcePoint" />
            <mxPoint x="470" y="510" as="targetPoint" />
          </mxGeometry>
        </mxCell>
        <mxCell id="vgfZ0bpz_m0bb3JBTG_X-63" value="Vehículo" style="whiteSpace=wrap;html=1;align=center;fillColor=#b1ddf0;strokeColor=#10739e;" parent="1" vertex="1">
          <mxGeometry x="30" y="420" width="100" height="40" as="geometry" />
        </mxCell>
        <mxCell id="vgfZ0bpz_m0bb3JBTG_X-64" value="" style="endArrow=none;html=1;rounded=0;exitX=1;exitY=0.5;exitDx=0;exitDy=0;entryX=0;entryY=0.5;entryDx=0;entryDy=0;fillColor=#b1ddf0;strokeColor=#10739e;" parent="1" source="vgfZ0bpz_m0bb3JBTG_X-63" target="vgfZ0bpz_m0bb3JBTG_X-61" edge="1">
          <mxGeometry relative="1" as="geometry">
            <mxPoint x="150" y="490" as="sourcePoint" />
            <mxPoint x="310" y="490" as="targetPoint" />
          </mxGeometry>
        </mxCell>
        <mxCell id="vgfZ0bpz_m0bb3JBTG_X-65" value="&lt;font style=&quot;font-size: 15px;&quot;&gt;1:N&lt;/font&gt;" style="text;html=1;align=center;verticalAlign=middle;resizable=0;points=[];autosize=1;" parent="1" vertex="1">
          <mxGeometry x="255" y="380" width="50" height="30" as="geometry" />
        </mxCell>
        <mxCell id="vgfZ0bpz_m0bb3JBTG_X-68" value="Pertenece" style="shape=rhombus;perimeter=rhombusPerimeter;whiteSpace=wrap;html=1;align=center;fillColor=#b1ddf0;strokeColor=#10739e;" parent="1" vertex="1">
          <mxGeometry x="120" y="570" width="120" height="60" as="geometry" />
        </mxCell>
        <mxCell id="vgfZ0bpz_m0bb3JBTG_X-71" value="" style="endArrow=none;html=1;rounded=0;exitX=0.5;exitY=1;exitDx=0;exitDy=0;entryX=0;entryY=0.5;entryDx=0;entryDy=0;fillColor=#b1ddf0;strokeColor=#10739e;" parent="1" source="vgfZ0bpz_m0bb3JBTG_X-63" target="vgfZ0bpz_m0bb3JBTG_X-68" edge="1">
          <mxGeometry relative="1" as="geometry">
            <mxPoint x="-30" y="530" as="sourcePoint" />
            <mxPoint x="130" y="530" as="targetPoint" />
            <Array as="points">
              <mxPoint x="80" y="600" />
            </Array>
          </mxGeometry>
        </mxCell>
        <mxCell id="vgfZ0bpz_m0bb3JBTG_X-73" value="Propietario" style="whiteSpace=wrap;html=1;align=center;fillColor=#b1ddf0;strokeColor=#10739e;" parent="1" vertex="1">
          <mxGeometry x="325" y="580" width="100" height="40" as="geometry" />
        </mxCell>
        <mxCell id="vgfZ0bpz_m0bb3JBTG_X-74" value="" style="endArrow=none;html=1;rounded=0;exitX=1;exitY=0.5;exitDx=0;exitDy=0;entryX=0;entryY=0.5;entryDx=0;entryDy=0;fillColor=#b1ddf0;strokeColor=#10739e;" parent="1" source="vgfZ0bpz_m0bb3JBTG_X-68" target="vgfZ0bpz_m0bb3JBTG_X-73" edge="1">
          <mxGeometry relative="1" as="geometry">
            <mxPoint x="240" y="660" as="sourcePoint" />
            <mxPoint x="400" y="660" as="targetPoint" />
          </mxGeometry>
        </mxCell>
        <mxCell id="vgfZ0bpz_m0bb3JBTG_X-75" value="&lt;font style=&quot;font-size: 15px;&quot;&gt;N:1&lt;/font&gt;" style="text;html=1;align=center;verticalAlign=middle;resizable=0;points=[];autosize=1;" parent="1" vertex="1">
          <mxGeometry x="155" y="540" width="50" height="30" as="geometry" />
        </mxCell>
        <mxCell id="vgfZ0bpz_m0bb3JBTG_X-76" value="DNI" style="ellipse;whiteSpace=wrap;html=1;align=center;fontStyle=4;fillColor=#b0e3e6;strokeColor=#0e8088;" parent="1" vertex="1">
          <mxGeometry x="425" y="530" width="100" height="40" as="geometry" />
        </mxCell>
        <mxCell id="vgfZ0bpz_m0bb3JBTG_X-77" value="Nombre" style="ellipse;whiteSpace=wrap;html=1;align=center;fillColor=#b1ddf0;strokeColor=#10739e;" parent="1" vertex="1">
          <mxGeometry x="480" y="580" width="100" height="40" as="geometry" />
        </mxCell>
        <mxCell id="vgfZ0bpz_m0bb3JBTG_X-78" value="Apellidos" style="ellipse;whiteSpace=wrap;html=1;align=center;fillColor=#b1ddf0;strokeColor=#10739e;" parent="1" vertex="1">
          <mxGeometry x="480" y="630" width="100" height="40" as="geometry" />
        </mxCell>
        <mxCell id="vgfZ0bpz_m0bb3JBTG_X-79" value="Nº Teléfono" style="ellipse;whiteSpace=wrap;html=1;align=center;fillColor=#b1ddf0;strokeColor=#10739e;" parent="1" vertex="1">
          <mxGeometry x="380" y="660" width="100" height="40" as="geometry" />
        </mxCell>
        <mxCell id="vgfZ0bpz_m0bb3JBTG_X-80" value="Correo Electrónico" style="ellipse;whiteSpace=wrap;html=1;align=center;fillColor=#b1ddf0;strokeColor=#10739e;" parent="1" vertex="1">
          <mxGeometry x="265" y="660" width="100" height="40" as="geometry" />
        </mxCell>
        <mxCell id="vgfZ0bpz_m0bb3JBTG_X-81" value="" style="endArrow=none;html=1;rounded=0;exitX=0.75;exitY=0;exitDx=0;exitDy=0;entryX=0;entryY=1;entryDx=0;entryDy=0;fillColor=#b1ddf0;strokeColor=#10739e;" parent="1" source="vgfZ0bpz_m0bb3JBTG_X-73" target="vgfZ0bpz_m0bb3JBTG_X-76" edge="1">
          <mxGeometry relative="1" as="geometry">
            <mxPoint x="460" y="620" as="sourcePoint" />
            <mxPoint x="620" y="620" as="targetPoint" />
          </mxGeometry>
        </mxCell>
        <mxCell id="vgfZ0bpz_m0bb3JBTG_X-82" value="" style="endArrow=none;html=1;rounded=0;exitX=1;exitY=0.25;exitDx=0;exitDy=0;entryX=0;entryY=0.5;entryDx=0;entryDy=0;fillColor=#b1ddf0;strokeColor=#10739e;" parent="1" source="vgfZ0bpz_m0bb3JBTG_X-73" target="vgfZ0bpz_m0bb3JBTG_X-77" edge="1">
          <mxGeometry relative="1" as="geometry">
            <mxPoint x="470" y="630" as="sourcePoint" />
            <mxPoint x="630" y="630" as="targetPoint" />
          </mxGeometry>
        </mxCell>
        <mxCell id="vgfZ0bpz_m0bb3JBTG_X-83" value="" style="endArrow=none;html=1;rounded=0;exitX=1;exitY=0.75;exitDx=0;exitDy=0;entryX=0;entryY=0;entryDx=0;entryDy=0;fillColor=#b1ddf0;strokeColor=#10739e;" parent="1" source="vgfZ0bpz_m0bb3JBTG_X-73" target="vgfZ0bpz_m0bb3JBTG_X-78" edge="1">
          <mxGeometry relative="1" as="geometry">
            <mxPoint x="480" y="640" as="sourcePoint" />
            <mxPoint x="640" y="640" as="targetPoint" />
          </mxGeometry>
        </mxCell>
        <mxCell id="vgfZ0bpz_m0bb3JBTG_X-84" value="" style="endArrow=none;html=1;rounded=0;exitX=0.75;exitY=1;exitDx=0;exitDy=0;entryX=0.5;entryY=0;entryDx=0;entryDy=0;fillColor=#b1ddf0;strokeColor=#10739e;" parent="1" source="vgfZ0bpz_m0bb3JBTG_X-73" target="vgfZ0bpz_m0bb3JBTG_X-79" edge="1">
          <mxGeometry relative="1" as="geometry">
            <mxPoint x="490" y="650" as="sourcePoint" />
            <mxPoint x="650" y="650" as="targetPoint" />
          </mxGeometry>
        </mxCell>
        <mxCell id="vgfZ0bpz_m0bb3JBTG_X-85" value="" style="endArrow=none;html=1;rounded=0;exitX=0.25;exitY=1;exitDx=0;exitDy=0;entryX=0.5;entryY=0;entryDx=0;entryDy=0;fillColor=#b1ddf0;strokeColor=#10739e;" parent="1" source="vgfZ0bpz_m0bb3JBTG_X-73" target="vgfZ0bpz_m0bb3JBTG_X-80" edge="1">
          <mxGeometry relative="1" as="geometry">
            <mxPoint x="500" y="660" as="sourcePoint" />
            <mxPoint x="660" y="660" as="targetPoint" />
          </mxGeometry>
        </mxCell>
        <mxCell id="vgfZ0bpz_m0bb3JBTG_X-86" value="Matrícula" style="ellipse;whiteSpace=wrap;html=1;align=center;fontStyle=4;fillColor=#b0e3e6;strokeColor=#0e8088;" parent="1" vertex="1">
          <mxGeometry x="120" y="330" width="100" height="40" as="geometry" />
        </mxCell>
        <mxCell id="vgfZ0bpz_m0bb3JBTG_X-87" value="Marca" style="ellipse;whiteSpace=wrap;html=1;align=center;fillColor=#b1ddf0;strokeColor=#10739e;" parent="1" vertex="1">
          <mxGeometry x="30" y="290" width="100" height="40" as="geometry" />
        </mxCell>
        <mxCell id="vgfZ0bpz_m0bb3JBTG_X-88" value="Modelo" style="ellipse;whiteSpace=wrap;html=1;align=center;fillColor=#b1ddf0;strokeColor=#10739e;" parent="1" vertex="1">
          <mxGeometry x="-80" y="290" width="100" height="40" as="geometry" />
        </mxCell>
        <mxCell id="vgfZ0bpz_m0bb3JBTG_X-89" value="Tipo de Vehículo" style="ellipse;whiteSpace=wrap;html=1;align=center;fillColor=#b1ddf0;strokeColor=#10739e;" parent="1" vertex="1">
          <mxGeometry x="-170" y="330" width="100" height="40" as="geometry" />
        </mxCell>
        <mxCell id="vgfZ0bpz_m0bb3JBTG_X-90" value="Tipo de Motor" style="ellipse;whiteSpace=wrap;html=1;align=center;fillColor=#b1ddf0;strokeColor=#10739e;" parent="1" vertex="1">
          <mxGeometry x="-180" y="380" width="100" height="40" as="geometry" />
        </mxCell>
        <mxCell id="vgfZ0bpz_m0bb3JBTG_X-91" value="Fecha Matriculación" style="ellipse;whiteSpace=wrap;html=1;align=center;fillColor=#b1ddf0;strokeColor=#10739e;" parent="1" vertex="1">
          <mxGeometry x="-180" y="440" width="100" height="40" as="geometry" />
        </mxCell>
        <mxCell id="vgfZ0bpz_m0bb3JBTG_X-92" value="Fecha Última Revisión&amp;nbsp;" style="ellipse;whiteSpace=wrap;html=1;align=center;fillColor=#b1ddf0;strokeColor=#10739e;" parent="1" vertex="1">
          <mxGeometry x="-160" y="500" width="100" height="40" as="geometry" />
        </mxCell>
        <mxCell id="vgfZ0bpz_m0bb3JBTG_X-93" value="" style="endArrow=none;html=1;rounded=0;exitX=0.75;exitY=0;exitDx=0;exitDy=0;entryX=0;entryY=1;entryDx=0;entryDy=0;fillColor=#b1ddf0;strokeColor=#10739e;" parent="1" source="vgfZ0bpz_m0bb3JBTG_X-63" target="vgfZ0bpz_m0bb3JBTG_X-86" edge="1">
          <mxGeometry relative="1" as="geometry">
            <mxPoint x="60" y="470" as="sourcePoint" />
            <mxPoint x="220" y="470" as="targetPoint" />
          </mxGeometry>
        </mxCell>
        <mxCell id="vgfZ0bpz_m0bb3JBTG_X-94" value="" style="endArrow=none;html=1;rounded=0;exitX=0.5;exitY=0;exitDx=0;exitDy=0;entryX=0.5;entryY=1;entryDx=0;entryDy=0;fillColor=#b1ddf0;strokeColor=#10739e;" parent="1" source="vgfZ0bpz_m0bb3JBTG_X-63" target="vgfZ0bpz_m0bb3JBTG_X-87" edge="1">
          <mxGeometry relative="1" as="geometry">
            <mxPoint x="70" y="480" as="sourcePoint" />
            <mxPoint x="230" y="480" as="targetPoint" />
          </mxGeometry>
        </mxCell>
        <mxCell id="vgfZ0bpz_m0bb3JBTG_X-95" value="" style="endArrow=none;html=1;rounded=0;exitX=0.25;exitY=0;exitDx=0;exitDy=0;entryX=1;entryY=1;entryDx=0;entryDy=0;fillColor=#b1ddf0;strokeColor=#10739e;" parent="1" source="vgfZ0bpz_m0bb3JBTG_X-63" target="vgfZ0bpz_m0bb3JBTG_X-88" edge="1">
          <mxGeometry relative="1" as="geometry">
            <mxPoint x="80" y="490" as="sourcePoint" />
            <mxPoint x="240" y="490" as="targetPoint" />
          </mxGeometry>
        </mxCell>
        <mxCell id="vgfZ0bpz_m0bb3JBTG_X-96" value="" style="endArrow=none;html=1;rounded=0;exitX=0;exitY=0.25;exitDx=0;exitDy=0;entryX=1;entryY=0.5;entryDx=0;entryDy=0;fillColor=#b1ddf0;strokeColor=#10739e;" parent="1" source="vgfZ0bpz_m0bb3JBTG_X-63" target="vgfZ0bpz_m0bb3JBTG_X-89" edge="1">
          <mxGeometry relative="1" as="geometry">
            <mxPoint x="90" y="500" as="sourcePoint" />
            <mxPoint x="250" y="500" as="targetPoint" />
          </mxGeometry>
        </mxCell>
        <mxCell id="vgfZ0bpz_m0bb3JBTG_X-97" value="" style="endArrow=none;html=1;rounded=0;exitX=1;exitY=0.5;exitDx=0;exitDy=0;entryX=0;entryY=0.5;entryDx=0;entryDy=0;fillColor=#b1ddf0;strokeColor=#10739e;" parent="1" source="vgfZ0bpz_m0bb3JBTG_X-90" target="vgfZ0bpz_m0bb3JBTG_X-63" edge="1">
          <mxGeometry relative="1" as="geometry">
            <mxPoint x="100" y="510" as="sourcePoint" />
            <mxPoint x="260" y="510" as="targetPoint" />
          </mxGeometry>
        </mxCell>
        <mxCell id="vgfZ0bpz_m0bb3JBTG_X-98" value="" style="endArrow=none;html=1;rounded=0;exitX=1;exitY=0.5;exitDx=0;exitDy=0;entryX=0;entryY=0.75;entryDx=0;entryDy=0;fillColor=#b1ddf0;strokeColor=#10739e;" parent="1" source="vgfZ0bpz_m0bb3JBTG_X-91" target="vgfZ0bpz_m0bb3JBTG_X-63" edge="1">
          <mxGeometry relative="1" as="geometry">
            <mxPoint x="110" y="520" as="sourcePoint" />
            <mxPoint x="270" y="520" as="targetPoint" />
          </mxGeometry>
        </mxCell>
        <mxCell id="vgfZ0bpz_m0bb3JBTG_X-99" value="" style="endArrow=none;html=1;rounded=0;exitX=1;exitY=0;exitDx=0;exitDy=0;entryX=0;entryY=1;entryDx=0;entryDy=0;fillColor=#b1ddf0;strokeColor=#10739e;" parent="1" source="vgfZ0bpz_m0bb3JBTG_X-92" target="vgfZ0bpz_m0bb3JBTG_X-63" edge="1">
          <mxGeometry relative="1" as="geometry">
            <mxPoint x="120" y="530" as="sourcePoint" />
            <mxPoint x="280" y="530" as="targetPoint" />
          </mxGeometry>
        </mxCell>
        <mxCell id="Ajp8p3OHxoUDQjaeF7a2-1" value="Matrícula" style="ellipse;whiteSpace=wrap;html=1;align=center;fontStyle=4;fillColor=#b0e3e6;strokeColor=#0e8088;" vertex="1" parent="1">
          <mxGeometry x="580" y="460" width="100" height="40" as="geometry" />
        </mxCell>
        <mxCell id="Ajp8p3OHxoUDQjaeF7a2-2" value="" style="endArrow=none;html=1;rounded=0;exitX=1;exitY=1;exitDx=0;exitDy=0;entryX=0;entryY=0.5;entryDx=0;entryDy=0;fillColor=#b1ddf0;strokeColor=#10739e;" edge="1" parent="1" source="vgfZ0bpz_m0bb3JBTG_X-39" target="Ajp8p3OHxoUDQjaeF7a2-1">
          <mxGeometry relative="1" as="geometry">
            <mxPoint x="640" y="570" as="sourcePoint" />
            <mxPoint x="800" y="570" as="targetPoint" />
          </mxGeometry>
        </mxCell>
        <mxCell id="Ajp8p3OHxoUDQjaeF7a2-3" value="Id_Estación" style="ellipse;whiteSpace=wrap;html=1;align=center;fillColor=#f3969a;strokeColor=#ae4132;" vertex="1" parent="1">
          <mxGeometry x="350" y="240" width="100" height="40" as="geometry" />
        </mxCell>
        <mxCell id="Ajp8p3OHxoUDQjaeF7a2-4" value="" style="endArrow=none;html=1;rounded=0;exitX=0.5;exitY=0;exitDx=0;exitDy=0;entryX=0.25;entryY=1;entryDx=0;entryDy=0;fillColor=#b1ddf0;strokeColor=#10739e;" edge="1" parent="1" source="Ajp8p3OHxoUDQjaeF7a2-3" target="vgfZ0bpz_m0bb3JBTG_X-8">
          <mxGeometry relative="1" as="geometry">
            <mxPoint x="670" y="320" as="sourcePoint" />
            <mxPoint x="830" y="320" as="targetPoint" />
          </mxGeometry>
        </mxCell>
        <mxCell id="Ajp8p3OHxoUDQjaeF7a2-6" value="Nombre Especialidad" style="ellipse;whiteSpace=wrap;html=1;align=center;fillColor=#f3969a;strokeColor=#10739e;" vertex="1" parent="1">
          <mxGeometry x="280" y="190" width="100" height="40" as="geometry" />
        </mxCell>
        <mxCell id="Ajp8p3OHxoUDQjaeF7a2-7" value="" style="endArrow=none;html=1;rounded=0;entryX=1;entryY=0;entryDx=0;entryDy=0;exitX=0;exitY=0.75;exitDx=0;exitDy=0;fillColor=#b1ddf0;strokeColor=#10739e;" edge="1" parent="1" source="vgfZ0bpz_m0bb3JBTG_X-8" target="Ajp8p3OHxoUDQjaeF7a2-6">
          <mxGeometry relative="1" as="geometry">
            <mxPoint x="370" y="190" as="sourcePoint" />
            <mxPoint x="730" y="310" as="targetPoint" />
          </mxGeometry>
        </mxCell>
        <mxCell id="Ajp8p3OHxoUDQjaeF7a2-9" value="" style="endArrow=none;html=1;rounded=0;exitX=1;exitY=0.5;exitDx=0;exitDy=0;entryX=1;entryY=0.75;entryDx=0;entryDy=0;fillColor=#b1ddf0;strokeColor=#10739e;" edge="1" parent="1" source="vgfZ0bpz_m0bb3JBTG_X-51" target="vgfZ0bpz_m0bb3JBTG_X-8">
          <mxGeometry relative="1" as="geometry">
            <mxPoint x="620" y="290" as="sourcePoint" />
            <mxPoint x="690" y="180" as="targetPoint" />
            <Array as="points">
              <mxPoint x="690" y="240" />
              <mxPoint x="690" y="170" />
            </Array>
          </mxGeometry>
        </mxCell>
        <mxCell id="Ajp8p3OHxoUDQjaeF7a2-10" value="Dni_Propietario" style="ellipse;whiteSpace=wrap;html=1;align=center;fillColor=#f3969a;strokeColor=#10739e;" vertex="1" parent="1">
          <mxGeometry x="-80" y="535" width="100" height="40" as="geometry" />
        </mxCell>
        <mxCell id="Ajp8p3OHxoUDQjaeF7a2-11" value="" style="endArrow=none;html=1;rounded=0;exitX=0.5;exitY=0;exitDx=0;exitDy=0;entryX=0.25;entryY=1;entryDx=0;entryDy=0;fillColor=#b1ddf0;strokeColor=#10739e;" edge="1" parent="1" source="Ajp8p3OHxoUDQjaeF7a2-10" target="vgfZ0bpz_m0bb3JBTG_X-63">
          <mxGeometry relative="1" as="geometry">
            <mxPoint x="-10" y="520" as="sourcePoint" />
            <mxPoint x="150" y="520" as="targetPoint" />
          </mxGeometry>
        </mxCell>
        <mxCell id="Ajp8p3OHxoUDQjaeF7a2-13" value="Nº Teléfono" style="ellipse;whiteSpace=wrap;html=1;align=center;fillColor=#b1ddf0;strokeColor=#10739e;" vertex="1" parent="1">
          <mxGeometry x="400" y="10" width="100" height="40" as="geometry" />
        </mxCell>
        <mxCell id="Ajp8p3OHxoUDQjaeF7a2-14" value="" style="endArrow=none;html=1;rounded=0;entryX=0.5;entryY=1;entryDx=0;entryDy=0;exitX=0.5;exitY=0;exitDx=0;exitDy=0;fillColor=#b1ddf0;strokeColor=#10739e;" edge="1" parent="1" source="vgfZ0bpz_m0bb3JBTG_X-8" target="Ajp8p3OHxoUDQjaeF7a2-13">
          <mxGeometry relative="1" as="geometry">
            <mxPoint x="500" y="129" as="sourcePoint" />
            <mxPoint x="660" y="129" as="targetPoint" />
          </mxGeometry>
        </mxCell>
      </root>
    </mxGraphModel>
  </diagram>
</mxfile>
